<?xml version="1.0" encoding="us-ascii" standalone="no"?><svg xmlns="http://www.w3.org/2000/svg" xmlns:xlink="http://www.w3.org/1999/xlink" contentStyleType="text/css" height="355px" preserveAspectRatio="none" style="width:817px;height:355px;background:#FFFFFF;" version="1.1" viewBox="0 0 817 355" width="817px" zoomAndPan="magnify"><defs/><g><!--class TemplateMethod--><g id="elem_TemplateMethod"><rect codeLine="2" fill="#F1F1F1" height="96.8906" id="TemplateMethod" rx="2.5" ry="2.5" style="stroke:#181818;stroke-width:0.5;" width="291" x="214" y="7"/><ellipse cx="296.25" cy="23" fill="#A9DCDF" rx="11" ry="11" style="stroke:#181818;stroke-width:1.0;"/><path d="M296.3594,18.3438 L295.2031,23.4219 L297.5313,23.4219 L296.3594,18.3438 Z M294.875,16.1094 L297.8594,16.1094 L301.2188,28.5 L298.7656,28.5 L298,25.4375 L294.7188,25.4375 L293.9688,28.5 L291.5313,28.5 L294.875,16.1094 Z " fill="#000000"/><text fill="#000000" font-family="sans-serif" font-size="14" font-style="italic" lengthAdjust="spacing" textLength="118" x="316.75" y="27.8467">TemplateMethod</text><line style="stroke:#181818;stroke-width:0.5;" x1="215" x2="504" y1="39" y2="39"/><line style="stroke:#181818;stroke-width:0.5;" x1="215" x2="504" y1="47" y2="47"/><text fill="#000000" font-family="sans-serif" font-size="14" lengthAdjust="spacing" textLength="82" x="220" y="63.9951">+setTable()</text><text fill="#000000" font-family="sans-serif" font-size="14" font-style="italic" lengthAdjust="spacing" textLength="212" x="220" y="80.292">+rowToString(row:any): string;</text><text fill="#000000" font-family="sans-serif" font-size="14" font-style="italic" lengthAdjust="spacing" textLength="279" x="220" y="96.5889">+getTable(): HTMLTableSectionElement</text></g><!--class PCategoria--><g id="elem_PCategoria"><rect codeLine="8" fill="#F1F1F1" height="80.5938" id="PCategoria" rx="2.5" ry="2.5" style="stroke:#181818;stroke-width:0.5;" width="289" x="53" y="167"/><ellipse cx="155.75" cy="183" fill="#ADD1B2" rx="11" ry="11" style="stroke:#181818;stroke-width:1.0;"/><path d="M158.7188,188.6406 Q158.1406,188.9375 157.5,189.0781 Q156.8594,189.2344 156.1563,189.2344 Q153.6563,189.2344 152.3281,187.5938 Q151.0156,185.9375 151.0156,182.8125 Q151.0156,179.6875 152.3281,178.0313 Q153.6563,176.375 156.1563,176.375 Q156.8594,176.375 157.5,176.5313 Q158.1563,176.6875 158.7188,176.9844 L158.7188,179.7031 Q158.0938,179.125 157.5,178.8594 Q156.9063,178.5781 156.2813,178.5781 Q154.9375,178.5781 154.25,179.6563 Q153.5625,180.7188 153.5625,182.8125 Q153.5625,184.9063 154.25,185.9844 Q154.9375,187.0469 156.2813,187.0469 Q156.9063,187.0469 157.5,186.7813 Q158.0938,186.5 158.7188,185.9219 L158.7188,188.6406 Z " fill="#000000"/><text fill="#000000" font-family="sans-serif" font-size="14" lengthAdjust="spacing" textLength="75" x="176.25" y="187.8467">PCategoria</text><line style="stroke:#181818;stroke-width:0.5;" x1="54" x2="341" y1="199" y2="199"/><line style="stroke:#181818;stroke-width:0.5;" x1="54" x2="341" y1="207" y2="207"/><text fill="#000000" font-family="sans-serif" font-size="14" lengthAdjust="spacing" textLength="212" x="59" y="223.9951">+rowToString(row:any): string;</text><text fill="#000000" font-family="sans-serif" font-size="14" lengthAdjust="spacing" textLength="277" x="59" y="240.292">+getTable(): HTMLTableSectionElement</text></g><!--class PProducto--><g id="elem_PProducto"><rect codeLine="13" fill="#F1F1F1" height="80.5938" id="PProducto" rx="2.5" ry="2.5" style="stroke:#181818;stroke-width:0.5;" width="289" x="377" y="167"/><ellipse cx="481.25" cy="183" fill="#ADD1B2" rx="11" ry="11" style="stroke:#181818;stroke-width:1.0;"/><path d="M484.2188,188.6406 Q483.6406,188.9375 483,189.0781 Q482.3594,189.2344 481.6563,189.2344 Q479.1563,189.2344 477.8281,187.5938 Q476.5156,185.9375 476.5156,182.8125 Q476.5156,179.6875 477.8281,178.0313 Q479.1563,176.375 481.6563,176.375 Q482.3594,176.375 483,176.5313 Q483.6563,176.6875 484.2188,176.9844 L484.2188,179.7031 Q483.5938,179.125 483,178.8594 Q482.4063,178.5781 481.7813,178.5781 Q480.4375,178.5781 479.75,179.6563 Q479.0625,180.7188 479.0625,182.8125 Q479.0625,184.9063 479.75,185.9844 Q480.4375,187.0469 481.7813,187.0469 Q482.4063,187.0469 483,186.7813 Q483.5938,186.5 484.2188,185.9219 L484.2188,188.6406 Z " fill="#000000"/><text fill="#000000" font-family="sans-serif" font-size="14" lengthAdjust="spacing" textLength="72" x="501.75" y="187.8467">PProducto</text><line style="stroke:#181818;stroke-width:0.5;" x1="378" x2="665" y1="199" y2="199"/><line style="stroke:#181818;stroke-width:0.5;" x1="378" x2="665" y1="207" y2="207"/><text fill="#000000" font-family="sans-serif" font-size="14" lengthAdjust="spacing" textLength="212" x="383" y="223.9951">+rowToString(row:any): string;</text><text fill="#000000" font-family="sans-serif" font-size="14" lengthAdjust="spacing" textLength="277" x="383" y="240.292">+getTable(): HTMLTableSectionElement</text></g><path d="M6,22.5 L6,77.8984 A0,0 0 0 0 6,77.8984 L171,77.8984 A0,0 0 0 0 171,77.8984 L171,54.1992 L218,59.1484 L171,46.1992 L171,32.5 L161,22.5 L6,22.5 A0,0 0 0 0 6,22.5 " fill="#FEFFDD" style="stroke:#181818;stroke-width:0.5;"/><path d="M161,22.5 L161,32.5 L171,32.5 L161,22.5 " fill="#FEFFDD" style="stroke:#181818;stroke-width:0.5;"/><text fill="#000000" font-family="sans-serif" font-size="13" font-weight="bold" lengthAdjust="spacing" textLength="120" x="12" y="39.5669">Metodo plantilla</text><text fill="#000000" font-family="sans-serif" font-size="13" lengthAdjust="spacing" textLength="4" x="132" y="39.5669">:</text><text fill="#000000" font-family="sans-serif" font-size="13" lengthAdjust="spacing" textLength="144" x="12" y="54.6997">define el esqueleto del</text><text fill="#000000" font-family="sans-serif" font-size="13" lengthAdjust="spacing" textLength="61" x="12" y="69.8325">algoritmo</text><g id="elem_N1"><path d="M548.5,27.5 L548.5,82.8984 L810.5,82.8984 L810.5,37.5 L800.5,27.5 L548.5,27.5 " fill="#FEFFDD" style="stroke:#181818;stroke-width:0.5;"/><path d="M800.5,27.5 L800.5,37.5 L810.5,37.5 L800.5,27.5 " fill="#FEFFDD" style="stroke:#181818;stroke-width:1.0;"/><text fill="#000000" font-family="sans-serif" font-size="13" font-weight="bold" lengthAdjust="spacing" textLength="170" x="554.5" y="44.5669">Operaciones primitivas</text><text fill="#000000" font-family="sans-serif" font-size="13" lengthAdjust="spacing" textLength="241" x="554.5" y="59.6997">redefinen ciertos pasos del algoritmo,</text><text fill="#000000" font-family="sans-serif" font-size="13" lengthAdjust="spacing" textLength="163" x="554.5" y="74.8325">sin cambiar su estructura</text></g><g id="elem_N2"><path d="M253,308 L253,348.2656 L466,348.2656 L466,318 L456,308 L253,308 " fill="#FEFFDD" style="stroke:#181818;stroke-width:0.5;"/><path d="M456,308 L456,318 L466,318 L456,308 " fill="#FEFFDD" style="stroke:#181818;stroke-width:1.0;"/><text fill="#000000" font-family="sans-serif" font-size="13" font-weight="bold" lengthAdjust="spacing" textLength="48" x="259" y="325.0669">Clases</text><text fill="#000000" font-family="sans-serif" font-size="13" lengthAdjust="spacing" textLength="88" x="311" y="325.0669">que redefinen</text><text fill="#000000" font-family="sans-serif" font-size="13" lengthAdjust="spacing" textLength="18" x="263" y="340.1997">las</text><text fill="#000000" font-family="sans-serif" font-size="13" font-style="italic" font-weight="bold" lengthAdjust="spacing" textLength="166" x="285" y="340.1997">operaciones primitivas</text></g><!--reverse link TemplateMethod to PCategoria--><g id="link_TemplateMethod_PCategoria"><path d="M291.0126,119.6213 C270.0226,139.1213 259.65,148.76 240.02,167 " fill="none" id="TemplateMethod-backto-PCategoria" style="stroke:#181818;stroke-width:1.0;"/><polygon fill="none" points="304.2,107.37,286.9289,115.2255,295.0964,124.017,304.2,107.37" style="stroke:#181818;stroke-width:1.0;"/></g><!--reverse link TemplateMethod to PProducto--><g id="link_TemplateMethod_PProducto"><path d="M427.9874,119.6213 C448.9774,139.1213 459.35,148.76 478.98,167 " fill="none" id="TemplateMethod-backto-PProducto" style="stroke:#181818;stroke-width:1.0;"/><polygon fill="none" points="414.8,107.37,423.9036,124.017,432.0711,115.2255,414.8,107.37" style="stroke:#181818;stroke-width:1.0;"/></g><!--link TemplateMethod to N1--><g id="link_TemplateMethod_N1"><path codeLine="26" d="M506.5,75 C520.03,77.99 534.11,79.83 548.15,80.75 " fill="none" id="TemplateMethod-N1" style="stroke:#181818;stroke-width:1.0;stroke-dasharray:7.0,7.0;"/></g><!--link TemplateMethod to N1--><g id="link_TemplateMethod_N1"><path codeLine="27" d="M506.5,91 C531.06,91 557.18,87.44 581.45,82.56 " fill="none" id="TemplateMethod-N1-1" style="stroke:#181818;stroke-width:1.0;stroke-dasharray:7.0,7.0;"/></g><!--link PCategoria to N2--><g id="link_PCategoria_N2"><path codeLine="31" d="M251.89,248.29 C279.29,268.33 311.24,291.7 333.17,307.74 " fill="none" id="PCategoria-N2" style="stroke:#181818;stroke-width:1.0;stroke-dasharray:7.0,7.0;"/></g><!--link PProducto to N2--><g id="link_PProducto_N2"><path codeLine="32" d="M467.11,248.29 C439.71,268.33 407.76,291.7 385.83,307.74 " fill="none" id="PProducto-N2" style="stroke:#181818;stroke-width:1.0;stroke-dasharray:7.0,7.0;"/></g><!--SRC=[jLBBJiD03BplLrYSMXMLnp5KbL2511A5Iisn5oTnYyLcj-mwlAh-Eqv27rGWn87BAclFpep7YO_ibXYmXDnYZ9SYWRDAw2RtRihl1AS6ioW1SsaHa5Avj2Wq9ddm1QnCBvAac5dgT4rljK6l8VYNr4-Lpoqw-fsWU-ic49l2nHVaOakGm7KwlcqkKyg5lRkoL98JipQcrP-CL7pX0oFGgv0hlhFqY_RV12V15rKk_j_rd1S2ItC1FpyGIP9DocQG3RNc2m_QTyBMuk0a6oPW2fgp8o0B59ygieg2Wgn1M-SbfJTg7sgLJwqZvRfVacv1ZL24PU2IXPynremp5wYbT90p1V6AmAYdaiAMz7Zc8Yi2oumnGAnKNO86LWKy0enmTsRCuJHxWK6_HXm2Df6rtPtTaUw46dkW8yBMuSo1Ta0H0nxw7sRYOVsmDNLkpDwlrE_NbTsgc_i7]--></g></svg>